<?xml version="1.0" encoding="utf-8"?>
<svg version="1.1"  xmlns="http://www.w3.org/2000/svg" xmlns:xlink="http://www.w3.org/1999/xlink" x="0px"
	 y="0px" viewBox="0 0 32 32" xml:space="preserve">
<style type="text/css">
  .path {
    fill: #494342;
  }
  @media (prefers-color-scheme: dark) {
    .path {
      fill: #ffffff;
    }
  }
</style>
<path class="path" d="M2.4,9.8C5,10.4,6.7,11.7,6.7,13c0,0.6-0.4,1.1-1,1.1c-0.7,0-0.8-0.3-1.3-1.4c-0.6-1.3-1.5-2.2-2-2.7V9.8z
	 M9.1,12.1c-1,3.9-1.1,4-2.6,9.2c-0.1,0.3-0.1,0.6-0.1,0.9c0,0.7,0.2,1.6,0.5,2.6c0.7,2.1,0.8,2.6,0.8,3.2c0,1-0.7,1.5-1.3,1.5
	c-1.2,0-1.2-1.2-1.2-1.5c0-0.4,0.1-2.1,0.1-2.4c0-3.5-0.8-3.7-2.3-4.3v-0.1c1.2-0.1,1.7-0.3,1.9-0.7c0.4-0.6,3.2-6.6,3.9-8.6
	L9.1,12.1z M5.5,2.3c1,0.2,4.2,1.1,4.2,3.1c0,0.7-0.4,1.2-1,1.2C8,6.6,7.9,6.2,7.5,5.4C7,4.2,6.1,3.1,5.5,2.5L5.5,2.3z M26.3,18.8
	l0.5-0.6c0.2-0.2,0.3-0.4,0.5-0.4c0.1,0,0.2,0.1,0.5,0.3l0.8,0.7c0.2,0.2,0.5,0.4,0.5,0.6c0,0.2-0.1,0.2-1.1,0.8
	c-0.6,6.8-1.8,9.3-5.4,9.5c-0.1-0.5-0.2-1.3-2.2-2.8l0.1-0.2c1,0.3,2.1,0.6,3.2,0.6c0.9,0,1.2-0.6,1.4-0.9c0.5-0.8,1.4-4.5,1.2-6.9
	h-2.5c-1.2,4.3-4.9,8.9-10.8,10.5l-0.1-0.2c4.7-2.7,7.8-6.4,9.1-10.3h-2.7c-2.5,4.5-5.1,6.6-9.2,8.1l-0.1-0.2c0.8-0.6,2.7-1.8,4.7-4
	c0.9-1,2-2.5,2.6-3.9h-2.6c-1.6,1.8-3.4,2.9-5.1,3.8l-0.1-0.2c2.8-2.3,4.7-5.4,5.6-7.1h-0.6c-1.1,0-2.8,0.2-4,0.4L9.5,15
	c2.3,0.2,4.6,0.2,5.2,0.2h12.1l0.9-1.1c0.2-0.3,0.3-0.4,0.5-0.4c0.2,0,0.2,0.1,0.6,0.3l1.4,1.1c0.2,0.2,0.3,0.3,0.3,0.5
	c0,0.3-0.3,0.3-0.5,0.3H16.9c-0.5,0.8-1,1.7-1.8,2.8H26.3z M22.5,3.2L23,2.6c0.4-0.5,0.5-0.5,0.6-0.5c0.1,0,0.1,0,0.5,0.3l0.8,0.7
	c0.4,0.3,0.5,0.4,0.5,0.5c0,0.2-0.2,0.4-1,0.8c0,1.1,0,2.4,0,3.8c0,0.7,0.1,3.7,0.1,4.3c0,0.6-0.6,1-1.2,1c-0.6,0-0.6-0.3-0.6-0.9
	h-7.1c0,0.3,0,1.2-1.2,1.2c-0.2,0-0.7,0-0.7-0.5c0-0.1,0-0.5,0-0.6c0.1-2.2,0.2-4.8,0.2-6c0-3.3-0.2-4-0.4-4.8l2.6,1.2H22.5z
	 M15.7,3.9v3.6h7.1V3.9H15.7z M15.7,8.2v3.7h7.1V8.2H15.7z"/>
</svg>
