<?xml version="1.0" encoding="UTF-8"?>
<svg width="100px" height="121px" viewBox="0 0 100 121" version="1.1" xmlns="http://www.w3.org/2000/svg" xmlns:xlink="http://www.w3.org/1999/xlink">
    <title>Group 14</title>
    <defs>
        <polygon id="path-1" points="0 0.398873239 28.9595775 0.398873239 28.9595775 27.8876056 0 27.8876056"></polygon>
        <polygon id="path-3" points="0 120.069014 99.8112676 120.069014 99.8112676 0 0 0"></polygon>
    </defs>
    <g id="Page-1" stroke="none" stroke-width="1" fill="none" fill-rule="evenodd">
        <g id="Kosugiyu_Milk_PC_1280" transform="translate(-590.000000, -5887.000000)">
            <g id="Group-14" transform="translate(590.000000, 5887.000000)">
                <path d="M77.7875352,62.1748592 C78.5551408,61.136831 79.2664085,60.0544366 79.9164085,58.9319014 L59.9044366,24.2699296 L67.2375352,11.5699296 C66.2389437,10.9924648 65.208662,10.4628873 64.1502113,9.98471831 L45.9058451,41.586831 L41.9037324,41.586831 L60.8861268,8.70795775 C59.7607746,8.33190141 58.6093662,8.0121831 57.4361268,7.75232394 L37.9016197,41.586831 L33.9002113,41.586831 L53.7840141,7.14669014 C52.5107746,7.00443662 51.2171127,6.93119718 49.9065493,6.93119718 L29.8980986,41.586831 L15.2488028,41.586831 L15.2488028,41.5882394 C15.2488028,42.7572535 15.3072535,43.9128873 15.4199296,45.0523239 L51.8938732,45.0523239 L53.8952817,48.5178169 L15.9424648,48.5178169 C16.1811972,49.6959859 16.480493,50.8523239 16.8354225,51.9833099 L55.8959859,51.9833099 L57.8966901,55.449507 L18.1319014,55.449507 C18.6523239,56.6410563 19.2389437,57.7973944 19.8847183,58.915 L59.8980986,58.915 L67.2283803,71.6114789 C68.2326056,71.0311972 69.2044366,70.4009155 70.1417606,69.7262676 L51.9009155,38.1326056 L53.9023239,34.6671127 L72.8790845,67.536831 C73.7727465,66.7445775 74.6248592,65.9072535 75.4326056,65.0283803 L55.9030282,31.2016197 L57.9037324,27.7361268 L77.7875352,62.1748592 Z" id="Fill-1" fill="#6681B1"></path>
                <path d="M49.9056338,5.19859155 C47.4380282,5.19859155 44.9711268,5.4471831 42.5739437,5.93802817 C40.2366197,6.41619718 37.9373239,7.12957746 35.7408451,8.05915493 C33.5838028,8.97112676 31.5042254,10.1 29.5584507,11.4140845 C27.6323944,12.715493 25.8204225,14.2105634 24.1739437,15.8570423 C22.528169,17.5028169 21.0330986,19.3147887 19.7316901,21.2408451 C18.4176056,23.1866197 17.2887324,25.2669014 16.3767606,27.4232394 C15.4471831,29.6197183 14.7338028,31.9190141 14.2549296,34.256338 C13.7647887,36.6535211 13.5161972,39.1204225 13.5161972,41.5880282 C13.5161972,44.0556338 13.7647887,46.5225352 14.2549296,48.9197183 C14.7338028,51.2570423 15.4471831,53.556338 16.3767606,55.7535211 C17.2887324,57.9098592 18.4176056,59.9894366 19.7316901,61.9352113 C21.0330986,63.8612676 22.528169,65.6732394 24.1739437,67.3190141 C25.8204225,68.965493 27.6323944,70.4605634 29.5584507,71.7619718 C31.5042254,73.0760563 33.5838028,74.2049296 35.7408451,75.1176056 C37.9373239,76.0464789 40.2366197,76.7598592 42.5739437,77.2380282 C44.9711268,77.7288732 47.4380282,77.9774648 49.9056338,77.9774648 C52.3732394,77.9774648 54.8401408,77.7288732 57.2380282,77.2380282 C59.5746479,76.7598592 61.8739437,76.0464789 64.0704225,75.1176056 C66.2274648,74.2049296 68.3070423,73.0760563 70.2528169,71.7619718 C72.1788732,70.4605634 73.9908451,68.965493 75.6373239,67.3190141 C77.2830986,65.6732394 78.778169,63.8612676 80.0795775,61.9352113 C81.393662,59.9894366 82.5225352,57.9098592 83.4352113,55.7535211 C84.3640845,53.556338 85.0774648,51.2570423 85.556338,48.9197183 C86.0464789,46.5225352 86.2950704,44.0556338 86.2950704,41.5880282 C86.2950704,39.1204225 86.0464789,36.6535211 85.556338,34.256338 C85.0774648,31.9190141 84.3640845,29.6197183 83.4352113,27.4232394 C82.5225352,25.2669014 81.393662,23.1866197 80.0795775,21.2408451 C78.778169,19.3147887 77.2830986,17.5028169 75.6373239,15.8570423 C73.9908451,14.2105634 72.1788732,12.715493 70.2528169,11.4140845 C68.3070423,10.1 66.2274648,8.97112676 64.0704225,8.05915493 C61.8739437,7.12957746 59.5746479,6.41619718 57.2380282,5.93802817 C54.8401408,5.4471831 52.3732394,5.19859155 49.9056338,5.19859155 M49.9056338,6.93098592 C69.0464789,6.93098592 84.5626761,22.4478873 84.5626761,41.5880282 C84.5626761,60.7288732 69.0464789,76.2450704 49.9056338,76.2450704 C30.765493,76.2450704 15.2492958,60.7288732 15.2492958,41.5880282 C15.2492958,22.4478873 30.765493,6.93098592 49.9056338,6.93098592" id="Fill-3" fill="#6681B1"></path>
                <path d="M49.9056338,0.00014084507 C47.0866197,0.00014084507 44.2676056,0.283943662 41.528169,0.845211268 C38.856338,1.39169014 36.228169,2.2071831 33.7169014,3.26985915 C31.2514085,4.31211268 28.8746479,5.60295775 26.6514085,7.1043662 C24.45,8.59169014 22.3795775,10.2994366 20.4985915,12.1811268 C18.6176056,14.0621127 16.9091549,16.131831 15.4225352,18.3332394 C13.9197183,20.5564789 12.6295775,22.9339437 11.5873239,25.3987324 C10.5253521,27.9107042 9.70915493,30.5388732 9.16267606,33.2107042 C8.60211268,35.9501408 8.31760563,38.7684507 8.31760563,41.588169 C8.31760563,44.4078873 8.60211268,47.2261972 9.16267606,49.9656338 C9.70915493,52.6374648 10.5253521,55.2656338 11.5873239,57.7769014 C12.6295775,60.2416901 13.9197183,62.6191549 15.4225352,64.8430986 C16.9091549,67.044507 18.6176056,69.1142254 20.4985915,70.9952113 C22.3795775,72.8761972 24.45,74.5846479 26.6514085,76.0712676 C28.8746479,77.5733803 31.2514085,78.8642254 33.7169014,79.9064789 C36.228169,80.9691549 38.856338,81.7846479 41.528169,82.3311268 C44.2676056,82.8923944 47.0866197,83.1761972 49.9056338,83.1761972 C52.7253521,83.1761972 55.543662,82.8923944 58.2830986,82.3311268 C60.9549296,81.7846479 63.5830986,80.9691549 66.0950704,79.9064789 C68.5598592,78.8642254 70.9373239,77.5733803 73.1605634,76.0712676 C75.3619718,74.5846479 77.4316901,72.8761972 79.3126761,70.9952113 C81.1943662,69.1142254 82.9021127,67.044507 84.3894366,64.8430986 C85.8915493,62.6191549 87.1816901,60.2416901 88.2246479,57.7769014 C89.2866197,55.2656338 90.1021127,52.6374648 90.6485915,49.9656338 C91.2091549,47.2261972 91.493662,44.4078873 91.493662,41.588169 C91.493662,38.7684507 91.2091549,35.9501408 90.6485915,33.2107042 C90.1021127,30.5388732 89.2866197,27.9107042 88.2246479,25.3987324 C87.1816901,22.9339437 85.8915493,20.5564789 84.3894366,18.3332394 C82.9021127,16.131831 81.1943662,14.0621127 79.3126761,12.1811268 C77.4316901,10.2994366 75.3619718,8.59169014 73.1605634,7.1043662 C70.9373239,5.60295775 68.5598592,4.31211268 66.0950704,3.26985915 C63.5830986,2.2071831 60.9549296,1.39169014 58.2830986,0.845211268 C55.543662,0.283943662 52.7253521,0.00014084507 49.9056338,0.00014084507 M49.9056338,3.4656338 C70.9598592,3.4656338 88.028169,20.5339437 88.028169,41.588169 C88.028169,62.6423944 70.9598592,79.7107042 49.9056338,79.7107042 C28.8514085,79.7107042 11.7830986,62.6423944 11.7830986,41.588169 C11.7830986,20.5339437 28.8514085,3.4656338 49.9056338,3.4656338" id="Fill-5" fill="#6681B1"></path>
                <g id="Group-9" transform="translate(0.000000, 91.900000)">
                    <mask id="mask-2" fill="white">
                        <use xlink:href="#path-1"></use>
                    </mask>
                    <g id="Clip-8"></g>
                    <path d="M19.473662,9.63478873 C24.4828169,11.7326761 28.9595775,15.6460563 28.9595775,18.9960563 C28.9595775,19.8721127 28.2708451,20.3735211 27.5511268,20.3735211 C26.6426761,20.3735211 26.3926761,19.7467606 25.6412676,17.7439437 C24.6391549,15.0509859 22.3222535,12.0453521 19.38,9.85450704 L19.473662,9.63478873 Z M16.7180282,1.18197183 C17.0630986,1.2756338 17.3130986,1.40098592 17.3130986,1.68267606 C17.3130986,1.93267606 17.3130986,1.93267606 16.186338,2.90309859 C16.1546479,3.74957746 16.186338,4.37492958 16.1546479,9.91647887 L16.123662,17.8685915 C16.123662,18.9016901 16.1546479,23.5038028 16.1546479,24.4432394 C16.123662,25.5707042 16.123662,27.5115493 12.836338,27.8876056 C12.7419718,27.2925352 12.5229577,26.8228169 11.6152113,26.2587324 C11.145493,25.9777465 10.4257746,25.6016901 9.2356338,25.1946479 L9.26732394,24.9129577 C11.145493,25.0066197 12.773662,25.1009859 13.1180282,25.1009859 C14.245493,25.1009859 14.3701408,24.6312676 14.3701408,24.0988732 C14.401831,23.285493 14.4328169,21.3129577 14.4328169,19.3087324 C14.4328169,17.7439437 14.3701408,10.3861972 14.3701408,9.44676056 C14.3701408,8.57 14.3391549,3.49816901 14.3391549,3.15380282 C14.2764789,1.77633803 14.0574648,0.90028169 13.9321127,0.398873239 L16.7180282,1.18197183 Z M10.3630986,9.50943662 C10.7701408,9.69746479 10.9574648,9.76014085 10.9574648,9.97915493 C10.9574648,10.4488732 9.89338028,10.6995775 9.58,10.7622535 C7.8271831,14.0178873 4.28915493,20.154507 0.125070423,22.7530986 L-0.000281690141,22.5333803 C3.19338028,19.6847887 7.26380282,11.1376056 7.51380282,9.13408451 C7.54549296,8.82070423 7.54549296,8.47633803 7.54549296,8.25732394 L10.3630986,9.50943662 Z" id="Fill-7" fill="#494342" mask="url(#mask-2)"></path>
                </g>
                <path d="M60.3002113,94.4904225 C60.5192254,94.6784507 60.6762676,94.8030986 60.6762676,95.085493 C60.6762676,95.5235211 60.3002113,95.6798592 59.9241549,95.6798592 C59.7051408,95.6798592 59.3607746,95.6178873 59.1417606,95.5552113 C56.6685211,98.4974648 53.3185211,101.440423 49.2488028,103.444648 L49.0917606,103.22493 C50.8762676,101.847465 54.0699296,98.9671831 56.636831,95.6798592 C57.1065493,95.0538028 57.7642958,94.2087324 58.3276761,92.7376056 L60.3002113,94.4904225 Z M62.4290845,102.067183 C62.5544366,102.161549 62.6480986,102.254507 62.6480986,102.536901 C62.6480986,102.818592 62.4600704,102.943944 62.1783803,103.00662 C61.9903521,103.00662 61.2079577,103.100282 61.0516197,103.131972 C56.636831,107.827042 52.0973944,110.80169 48.5910563,111.678451 L48.4657042,111.428451 C51.5340141,110.113662 55.5100704,106.32493 57.8896479,103.694648 C58.5783803,102.912254 59.3607746,102.035493 60.3002113,100.314366 L62.4290845,102.067183 Z M64.4642958,108.641831 C64.5262676,108.673521 64.871338,108.986197 64.871338,109.298873 C64.871338,109.643944 64.5262676,109.736901 64.0565493,109.736901 C63.8692254,109.736901 63.5565493,109.705915 63.2741549,109.705915 C62.2410563,110.927042 59.986831,113.681972 56.1678169,116.248873 C52.2227465,118.910845 49.1544366,119.474225 47.7769718,119.72493 L47.6833099,119.474225 C51.9093662,117.78338 55.6980986,115.122817 58.8290845,111.835493 C60.1121831,110.489014 61.9283803,108.391127 62.4290845,106.919296 L64.4642958,108.641831 Z M40.7326056,100.595352 C39.636831,100.595352 37.8833099,100.720704 36.7248592,100.939718 L35.9741549,99.5939437 C38.3220423,99.7819718 40.6079577,99.8446479 41.1706338,99.8446479 L42.736831,99.8446479 L42.736831,95.2728169 C42.736831,93.5509859 42.4861268,92.6432394 42.2980986,91.8608451 L44.7403521,92.7059155 C45.0530282,92.8002817 45.3037324,92.8932394 45.3037324,93.1756338 C45.3037324,93.3319718 45.3037324,93.4883099 44.3333099,94.2087324 C44.3016197,95.241831 44.2079577,96.6192958 44.2079577,99.8446479 L46.5558451,99.8446479 L47.6206338,98.5291549 C47.7459859,98.404507 47.965,98.1530986 48.121338,98.1530986 C48.3093662,98.1530986 48.4340141,98.3101408 48.6847183,98.5601408 L49.9058451,99.7819718 C50.1248592,100.000282 50.2192254,100.062958 50.2192254,100.250986 C50.2192254,100.564366 49.9685211,100.595352 49.749507,100.595352 L44.2079577,100.595352 C44.2079577,100.939718 44.2079577,101.910141 44.2389437,103.381972 C48.121338,104.759437 49.1861268,106.669296 49.1861268,107.639718 C49.1861268,108.141127 48.9037324,108.704507 48.2466901,108.704507 C47.4952817,108.704507 47.2445775,108.203803 46.5558451,106.794648 C45.7107746,105.072113 44.9593662,104.321408 44.2389437,103.882676 C44.3016197,113.900986 44.3016197,115.059437 44.4579577,117.250986 C44.4579577,117.313662 44.4896479,118.158732 44.4896479,118.410141 C44.4896479,119.72493 43.6445775,120.005915 42.9241549,120.005915 C42.3917606,120.005915 42.2354225,119.787606 42.2354225,119.286197 C42.2354225,119.036197 42.3607746,117.971408 42.3917606,117.752394 C42.7678169,112.336197 42.7678169,107.796761 42.7678169,104.258732 C41.4523239,107.671408 38.9480986,112.179155 35.5664085,114.871408 L35.3790845,114.684085 C38.3530282,111.396761 41.4840141,104.321408 42.3917606,100.595352 L40.7326056,100.595352 Z" id="Fill-10" fill="#494342"></path>
                <mask id="mask-4" fill="white">
                    <use xlink:href="#path-3"></use>
                </mask>
                <g id="Clip-13"></g>
                <path d="M84.9711268,101.942254 L92.078169,101.942254 L92.078169,98.2478873 L84.9711268,98.2478873 L84.9711268,101.942254 Z M84.9711268,97.4957746 L92.078169,97.4957746 L92.078169,93.8957746 L84.9711268,93.8957746 L84.9711268,97.4957746 Z M91.765493,93.1443662 L92.2978873,92.55 C92.7042254,92.0802817 92.7669014,92.0802817 92.9232394,92.0802817 C93.0176056,92.0802817 93.0176056,92.0802817 93.3929577,92.3929577 L94.2077465,93.0816901 C94.6140845,93.4260563 94.6767606,93.4577465 94.6767606,93.6133803 C94.6767606,93.8647887 94.4894366,94.0204225 93.6753521,94.428169 C93.6753521,95.5549296 93.6753521,96.8697183 93.706338,98.278169 C93.706338,98.9676056 93.8316901,102.004225 93.8316901,102.630282 C93.8316901,103.225352 93.2683099,103.632394 92.6732394,103.632394 C92.078169,103.632394 92.078169,103.319718 92.078169,102.692958 L84.9711268,102.692958 C84.9711268,103.037324 85.0028169,103.94507 83.7816901,103.94507 C83.593662,103.94507 83.1246479,103.914085 83.1246479,103.41338 C83.1246479,103.319718 83.1556338,102.880986 83.1556338,102.787324 C83.2809859,100.626761 83.3126761,97.9971831 83.3126761,96.8070423 C83.3126761,93.4577465 83.1556338,92.8 82.9366197,91.9859155 L85.5352113,93.1443662 L91.765493,93.1443662 Z M95.6478873,108.829577 L96.1485915,108.266197 C96.3049296,108.077465 96.4612676,107.890141 96.6492958,107.890141 C96.7746479,107.890141 96.8683099,107.952817 97.1190141,108.171831 L97.9640845,108.892254 C98.2147887,109.111268 98.4338028,109.299296 98.4338028,109.455634 C98.4338028,109.643662 98.3401408,109.706338 97.3070423,110.301408 C96.6802817,117.094366 95.4908451,119.599296 91.8591549,119.81831 C91.765493,119.317606 91.6401408,118.472535 89.6056338,117.000704 L89.6676056,116.81338 C90.6697183,117.126056 91.7964789,117.407746 92.8612676,117.407746 C93.7380282,117.407746 94.0514085,116.844366 94.2387324,116.530986 C94.7394366,115.685915 95.6161972,112.023239 95.4598592,109.580986 L92.9232394,109.580986 C91.7338028,113.901408 88.0394366,118.535211 82.0915493,120.069014 L82.0288732,119.912676 C86.756338,117.157746 89.8866197,113.494366 91.1077465,109.580986 L88.415493,109.580986 C85.8795775,114.058451 83.2809859,116.18662 79.1478873,117.658451 L79.0232394,117.501408 C79.8683099,116.938028 81.7464789,115.716901 83.7190141,113.494366 C84.6274648,112.461268 85.7225352,111.021127 86.3492958,109.580986 L83.7190141,109.580986 C82.1542254,111.365493 80.306338,112.523944 78.6161972,113.400704 L78.4908451,113.212676 C81.3084507,110.895775 83.25,107.764789 84.0633803,106.042958 L83.5,106.042958 C82.4042254,106.042958 80.6823944,106.199296 79.4929577,106.419014 L78.7415493,105.072535 C81.0894366,105.259859 83.3746479,105.291549 83.9380282,105.291549 L96.1176056,105.291549 L97.056338,104.164789 C97.2753521,103.882394 97.4007042,103.757746 97.5577465,103.757746 C97.7140845,103.757746 97.8077465,103.851408 98.1211268,104.102113 L99.4985915,105.228873 C99.6549296,105.385915 99.8112676,105.511268 99.8112676,105.729577 C99.8112676,106.011972 99.5295775,106.042958 99.3415493,106.042958 L86.1922535,106.042958 C85.7225352,106.888732 85.1908451,107.702113 84.3450704,108.829577 L95.6478873,108.829577 Z M74.7021127,92.3302817 C75.7042254,92.55 78.9288732,93.3950704 78.9288732,95.4295775 C78.9288732,96.1183099 78.5225352,96.6197183 77.9584507,96.6197183 C77.2697183,96.6197183 77.1133803,96.2126761 76.7380282,95.3676056 C76.2056338,94.1457746 75.3288732,93.0507042 74.7338028,92.5183099 L74.7021127,92.3302817 Z M78.3971831,102.161268 C77.3633803,106.106338 77.3323944,106.199296 75.7985915,111.396479 C75.7042254,111.741549 75.6732394,111.991549 75.6732394,112.335915 C75.6732394,113.087324 75.8922535,113.964085 76.2056338,114.966197 C76.8943662,117.094366 77.0507042,117.533099 77.0507042,118.221831 C77.0507042,119.223944 76.3929577,119.755634 75.7042254,119.755634 C74.5457746,119.755634 74.5457746,118.597887 74.5457746,118.284507 C74.5457746,117.908451 74.6401408,116.21831 74.6401408,115.873944 C74.6401408,112.398592 73.8570423,112.116901 72.3232394,111.553521 L72.3232394,111.428169 C73.5443662,111.365493 73.9823944,111.146479 74.2330986,110.771127 C74.6084507,110.207042 77.3950704,104.133803 78.1464789,102.098592 L78.3971831,102.161268 Z M71.6035211,99.8443662 C74.2021127,100.376761 75.9232394,101.691549 75.9232394,102.974648 C75.9232394,103.569718 75.5478873,104.070423 74.9211268,104.070423 C74.2330986,104.070423 74.0767606,103.757746 73.6070423,102.692958 C73.0429577,101.378169 72.1352113,100.470423 71.6035211,100.000704 L71.6035211,99.8443662 Z" id="Fill-12" fill="#494342" mask="url(#mask-4)"></path>
            </g>
        </g>
    </g>
</svg>