<svg xmlns="http://www.w3.org/2000/svg" xmlns:xlink="http://www.w3.org/1999/xlink" width="200" height="612" viewBox="0 0 200 612">
    <defs>
        <path id="y4kxg9ecea" d="M0 0.001L59.679 0.001 59.679 539.68 0 539.68z"/>
        <path id="p0hvcjhb7c" d="M0 0L199.77 0 199.77 43.59 0 43.59z"/>
    </defs>
    <g fill="none" fill-rule="evenodd">
        <g>
            <g>
                <g transform="translate(-1120 -150) translate(1120 150) translate(139.884)">
                    <mask id="2zw30rv0zb" fill="#fff">
                        <use xlink:href="#y4kxg9ecea"/>
                    </mask>
                    <path fill="#3E3A39" d="M40.576 490.208l-23.268 1.404.832 11.041 21.154-1.15 1.282-11.295zm4.617 27.703l-31.027 1.342.961 13.531 28.527-.83 1.539-14.043zm-29.81 17.744l.195 3v.13c0 .512-.385.896-1.026.896-.514 0-2.693-.577-2.693-2.235v-.193c.128-.891.192-1.598.192-2.424 0-.384 0-.83-.064-1.28l-1.09-13.913c-.128-1.278-.448-2.234-.897-3.257-.128-.255-.192-.51-.192-.703 0-.319.192-.573.705-.573.643 0 1.858.384 3.91 1.34l7.244-.319c2.115-3.255 3.975-6.832 5.063-9.385.194-.444.256-1.15.256-1.85l-8.652.446.19 2.234v.13c0 .383-.254.765-.831.765-1.091 0-2.756-.83-2.756-2.043v-.319c.062-.703.126-1.28.126-1.98v-.574l-.897-11.235c-.064-1.02-.385-2.17-.961-3.191-.13-.257-.257-.575-.257-.765 0-.255.193-.45.707-.45.641 0 1.729.255 3.587 1.023l23.975-1.595h.515c1.023 0 2.5.703 2.5 1.913 0 .447-.257.895-.321 1.278l-1.669 10.725c1.154 1.148 1.605 1.85 1.605 2.233 0 .447-.513.577-1.092.637l-13.652.702c.898.512 1.344 1.213 1.344 1.598 0 .128-.062.192-.062.256-1.666 3.32-3.46 6.316-5.514 9.257l21.025-.96h.707c1.346 0 2.563.96 2.563 1.915 0 .513-.322.896-.384 1.34l-1.859 13.724c1.09 1.024 1.474 1.727 1.474 2.173 0 .51-.579.703-1.091.703l-31.922.826zm21.155-93.259l-7.052.51-.064 8.362 6.219-.318.897-8.554zm-9.934.702l-6.411.448.64 8.231 5.705-.318.066-8.361zm11.921 21.129c-2.307.448-20.576 3.956-21.86 3.956-2.113 0-2.948-2.682-2.948-2.682 0-.06-.062-.124-.062-.189 0-.19.257-.254.577-.254.447 0 .895.064 1.282.064 1.602 0 8.204-.831 10.896-1.278l.128-10.022-5.512.319.128 1.66v.255c0 .513-.194.895-.707.895-.705 0-2.37-1.15-2.37-2.233v-.323c.063-.573.127-1.085.127-1.53 0-.383-.064-.705-.064-1.148l-.641-7.28c-.126-1.275-.32-2.235-.641-3.19-.062-.259-.126-.513-.126-.637 0-.323.126-.449.446-.449.45 0 1.412.319 2.95 1.022l6.538-.513.064-6.126c-3.205.573-6.283 1.02-9.231 1.404-.257 0-.513.064-.767.064-.898 0-1.412-.254-1.412-.576 0-.445.705-.956 1.988-1.21 18.269-4.087 19.422-5.3 20.126-6.066.13-.13.258-.19.322-.19.769 0 2.05 2.17 2.05 2.872 0 .701-.894.956-10.192 3.065l-.064 6.573 7.437-.575h.577c1.538 0 2.309.96 2.309 1.724 0 .385-.258.767-.32 1.022l-1.156 8.17c1.09.956 1.538 1.533 1.538 1.852 0 .382-.449.446-1.09.512l-9.485.507-.13 9.703c2.563-.382 5.193-1.02 7.82-1.402-.96-1.404-1.922-2.746-2.947-3.956-.32-.385-.449-.707-.449-1.026 0-.765 1.025-1.338 1.666-1.338.32 0 .575.189.962.637 2.31 2.875 7.82 10.022 7.82 11.3 0 .449-.255.831-.834 1.214-.513.383-.895.573-1.154.573-.447 0-.769-.383-1.09-.956l-2.499-4.214zm21.154-4.533c-.194 3.896-.64 8.042-1.091 11.171-.255 1.851-.767 2.618-1.923 2.618-5.832 0-11.795-10.789-11.795-29.236v-1.404l.385-19.216-32.37 2.17c-.77 24.388-1.155 35.175-10.514 47.238-.767 1.021-1.474 1.468-1.923 1.468-.256 0-.448-.19-.448-.573 0-.447.256-1.084.769-1.98 5.832-9.32 8.782-17.94 8.782-44.303 0-1.786-.128-3.379-.514-4.975-.064-.255-.127-.45-.127-.64 0-.256.127-.446.513-.446.513 0 1.667.382 3.846 1.592l32.5-2.293h.447c.771 0 2.628.891 2.628 2.039 0 .449-.319.767-.319 1.086l-.64 18.895c0 .641-.067 1.278-.067 1.915 0 18.387 6.542 24.767 7.693 24.767.193 0 .32-.126.387-.318.767-2.743 1.538-6.51 1.985-9.511.258-1.851.769-2.747 1.156-2.747.384 0 .64.704.64 1.982v.7zm-30.096-97.095c0-.318.257-.444.513-.444.128 0 .256 0 .32.062 1.797.7 2.308 1.214 2.95 2.173.129.124.129.254.129.443 0 .13 0 .258-.064.384 1.922-.19 13.974-1.722 14.55-1.722.962 0 2.628.955 2.628 1.915 0 .318-.128.573-.448.891-.128.13-.387.259-.515.513-13.01 26.746-36.216 41.3-39.613 41.3-.32 0-.577-.127-.705-.318-.066-.064-.066-.192-.066-.318 0-.447.515-1.024 1.54-1.533 7.757-4.148 24.616-18.705 35.257-39.514-6.411.571-8.911 1.02-12.823 1.467-.382.066-.767.066-1.087.066-.257 0-.45 0-.641-.066-7.5 10.087-16.796 16.854-17.95 17.491-.513.385-.961.513-1.218.513-.256 0-.448-.064-.575-.258-.13-.19-.196-.383-.196-.573 0-.255.196-.511.771-.96 3.333-2.678 11.154-9.958 16.987-18.765.192-.319.448-.896.448-1.533 0-.318-.062-.637-.192-1.021v-.193zm-2.082-17.681c0-.573.19-1.02.19-1.657.065-12.193.065-27.389.065-31.473 0-1.723-1.026-2.17-1.026-2.873v-.064c0-.319.32-.443.771-.443.383 0 3.587.06 3.587 2.552 0 .383-.062.828-.062 1.404 0 1.467-.128 23.682-.128 30.256 7.947-5.042 17.05-13.786 22.947-21.638.515-.701.961-.96 1.282-.96.384 0 .64.383.64.896 0 .382-.125.765-.32 1.15-6.665 12.445-25.19 25.662-26.025 25.662-1.154 0-1.92-2.3-1.92-2.618v-.194zM20.77 317.98c-1.281 17.746-9.68 26.812-14.807 30.959-.513.383-.9.51-1.218.51-.45 0-.64-.318-.64-.7 0-.383.19-.896.64-1.278 4.229-4.023 11.473-13.407 12.693-28.66v-.258c0-1.404-.835-1.656-.835-2.297 0-.127 0-.255.064-.385.066-.124.256-.188.576-.188.641 0 1.733.252 2.246.446.83.255 1.281.51 1.281 1.469v.382zm22.681-56.224c-.159 0-.343-.06-.553-.132-8.56-3.693-19.032-5.885-26.161-7.212-.87-.145-.964-.83-.964-1.115 0-.635.459-1.34 1.115-1.34h.233c8.291 1.373 20.181 3.576 26.841 6.765.478.216.76.703.76 1.307 0 .833-.511 1.727-1.27 1.727zm-3.882 16.095c-.076 0-.293-.072-.439-.119-7.94-3.659-16.425-5.947-22.145-7.223-.575-.155-.9-.553-.9-1.117 0-.621.446-1.264 1.191-1.264h.234c3.88.678 16.648 3.552 22.785 6.76.414.205.62.62.62 1.236 0 .831-.515 1.727-1.346 1.727zm6.835 23.522c-.204 0-.255 0-.375-.082-8.179-5.009-24.249-11.053-33.05-13.749-.71-.194-.855-.678-.855-1.05 0-.641.53-1.414 1.19-1.414.053 0 .13 0 .195.03 11.171 3.01 26.244 8.44 33.594 13.054.536.332.647.864.647 1.255 0 .95-.694 1.956-1.346 1.956zM9.388 218.908c0 4.855 3.552 8.573 4.759 9.532.3.3.66.418 1.023.418.422 0 .903-.301 1.325-.84 6.683-8.811 9.515-23.56 9.635-25.419 0-.421-.602-1.258-.602-1.258-10.48 2.517-16.14 12.228-16.14 17.567zm21.318-18.167c-.783 0-1.504.06-2.168.12.361.357.542.656.542 1.26 0 .717-2.77 18.646-11.32 28.838-.663.837-1.566 1.138-2.471 1.138-1.022 0-1.985-.36-2.65-.961-4.214-3.655-6.08-8.033-6.08-12.228 0-10.016 11.983-20.747 23.906-20.925h.542c12.828 0 18.43 8.273 18.43 17.746 0 16.246-19.333 22.844-21.38 22.844-.602 0-.904-.183-.904-.484 0-.355.48-.897 1.568-1.377 6.743-3.177 16.617-9.831 17.4-19.065.06-.66.06-1.258.06-1.918 0-7.614-3.791-14.988-15.234-14.988h-.241zm13.651-60.053l-16.473 1.086.32 5.11 15.77-.962.383-5.234zm.577-7.276l-17.499 1.214.32 4.848 16.797-1.146.382-4.916zm-16.538 15.765l.067 1.408v.125c0 .512-.321.895-.836.895-.32 0-2.5-.831-2.5-1.851v-.194c.065-.956.129-1.915.129-2.743v-.895l-.705-10.659c-.066-1.15-.256-1.596-.77-3-.063-.193-.127-.319-.127-.511 0-.19.192-.385.576-.385.513 0 1.539.319 3.335.896l18.01-1.339h.579c1.282 0 2.307.956 2.307 1.721 0 .513-.32.831-.384 1.15l-1.22 11.999c1.027.831 1.412 1.342 1.412 1.727 0 .446-.577.572-1.091.637l-18.782 1.02zm18.14 31.664c.962 0 3.207-7.34 3.656-18.641l-3.655.194c-6.474 10.468-13.78 16.147-22.433 20.426-.835.449-1.54.573-1.989.573-.384 0-.64-.124-.64-.383 0-.382.512-1.02 1.602-1.656 7.435-4.47 14.166-10.665 19.422-18.77l-6.153.319c-7.95 9.448-17.692 13.34-18.973 13.34-.451 0-.707-.19-.707-.444 0-.383.576-.96 1.668-1.597 4.23-2.363 10.062-6.574 14.036-11.107l-6.794.319c-4.486 3.449-9.167 5.937-10.256 5.937-.447 0-.703-.19-.703-.449 0-.382.446-.955 1.538-1.657 4.743-3 10.062-7.087 13.331-11.365l-9.488.512c-.51 0-1.023.065-1.408.065-.961 0-1.027-.065-1.988-1.02-.321-.449-.577-.895-.768-1.408-.064-.064-.064-.189-.064-.255 0-.188.128-.318.385-.318h.19c.771.19 1.474.254 2.245.254h.705l33.46-1.787c.964-.064 1.605-.128 2.372-.382.32-.128.577-.19.835-.19 1.024 0 2.82 1.34 2.82 2.105 0 .449-.449.767-1.09.831l-24.038 1.338c-1.474 1.787-3.076 3.45-4.745 4.982l22.116-1.15h.385c1.858 0 2.243 1.659 2.243 1.723 0 .513-.32.895-.385 1.278-.767 14.49-3.012 22.215-5.962 22.215-2.051 0-10.64-4.852-10.64-6.002 0-.254.257-.448.768-.448.45 0 1.091.13 1.86.448 2.243.896 5.514 1.851 6.988 2.17h.255zm-31.088-38.749c-.255 0-.511-.254-.962-.763-1.858-2.174-4.87-5.174-7.372-7.215-.383-.319-.641-.577-.641-.896 0-.318.128-.637.515-1.02.32-.382.576-.512.897-.512.32 0 .705.13 1.088.448.45.319 8.27 6.384 8.27 7.98 0 .384-.19.768-.577 1.15-.575.574-.896.828-1.218.828zm-9.936 39.196c-2.18-.253-3.141-1.339-3.141-1.721 0-.13.13-.259.32-.385 1.026-.575 1.539-1.214 2.18-2.233 2.822-4.47 5.706-9.64 8.718-16.023.77-1.597 1.41-2.3 1.859-2.3.256 0 .386.254.386.767 0 2.618-6.09 15.064-8.526 19.98-.515 1.085-.897 1.915-1.666 1.915h-.13zm4.616-26.81c-1.987-1.982-5.257-4.534-8.013-6.385-.447-.318-.705-.639-.705-1.021 0-.447.578-1.533 1.281-1.533.836 0 10.13 6.066 10.13 7.534 0 .513-.77 2.042-1.603 2.042-.32 0-.641-.19-1.09-.638zm37.178-90.264c0-.383.13-.513.386-.513.77 0 3.205 1.599 3.205 2.746 0 .13-.064.255-.128.385-7.95 11.105-18.72 15.959-19.937 15.959-.51 0-.767-.194-.767-.577 0-.384.382-.957 1.408-1.594 6.027-3.83 11.41-8.748 15.322-14.425.256-.322.51-.961.51-1.727v-.254zm-16.6 33.639c-.449 0-.705-.189-.705-.507 0-.385.384-.96 1.346-1.599 11.729-7.658 17.82-14.679 17.82-17.744 0-.448.19-.637.512-.637 1.09 0 3.012 1.912 3.012 2.743 0 .128-.064.254-.128.382-7.885 11.619-20.896 17.362-21.857 17.362zm-4.102 20.303c-.641.253-1.156.383-1.54.383-.449 0-.77-.194-.77-.449 0-.382.513-.895 1.539-1.468 10.575-6 19.295-13.15 25.064-22.535.382-.573.577-1.469.577-2.488 0-.385.192-.573.576-.573 1.028 0 3.141 1.592 3.141 2.806 0 .768-7.307 15.004-28.587 24.324zM18.14 81.83v4.727c.194-.064.32-.128.514-.128.385 0 .768.192 1.026.446 1.28.892 9.293 6.639 9.293 8.171 0 .767-.831 1.915-1.666 1.915-.32 0-.703-.192-1.09-.64-2.756-2.807-5.512-5.107-8.14-7.212l-.258 28.535c0 .7-.32 1.15-.961 1.15-.513 0-2.692-.573-2.692-2.236 0-.192.066-.383.066-.573.385-4.467.385-4.916.641-18.257.064-4.086.32-10.853.32-10.853C9.295 99.451 1.794 106.342.576 106.342c-.256 0-.448-.188-.448-.443 0-.513.448-1.408 1.282-2.363 4.809-5.553 8.975-12.446 12.886-21.384l-7.052.639c-.577.064-1.092.128-1.474.128-1.346 0-2.181-.705-2.758-2.492-.062-.126-.062-.19-.062-.318 0-.19.126-.255.32-.255.062 0 .127.064.257.064.64.125 1.217.19 1.794.19.32 0 .705-.065 1.026-.065l8.716-.571.13-12.257c0-1.405-.13-2.3-.576-3.514 0-.064-.065-.124-.065-.188 0-.259.255-.385.641-.385.577 0 3.14.255 3.14 2.426l-.13 13.663 5.643-.512c1.09-.064 1.602-.255 2.307-.513.13-.064.193-.064.32-.064.898 0 2.5 1.214 2.5 2.109 0 .509-.384.831-.961.891l-9.872.702zm36.602-42.956c-.512 0-.833-.383-1.023-.895-3.014-6.384-8.144-14.998-13.015-21.194-.19-.254-.254-.508-.254-.765 0-.703.831-1.723 1.923-1.723.382 0 .703.129.895.447 5.257 7.151 10.064 14.745 13.655 21.448.127.254.193.513.193.767 0 .513-.32.956-.898 1.214-.64.447-1.091.701-1.476.701zM31.793 51.067c0 2.488-1.666 3.065-2.563 3.065-1.603 0-13.27-6.066-13.27-8.047 0-.318.257-.573.772-.573.384 0 .83.13 1.472.45 2.63 1.465 7.18 3.443 10.064 4.21l.128-46.47c0-1.089-.254-1.916-.895-3-.066-.13-.13-.258-.13-.322 0-.255.256-.379.64-.379.385 0 3.912.443 3.912 2.294l-.13 47.304v1.468zM2.95 39.896c0-.385.192-.832.639-1.469 4.36-6.255 8.59-13.914 10.77-21.323.193-.637.258-1.657.32-2.424 0-.318.194-.447.514-.447.832 0 3.205 1.597 3.205 2.871 0 .13 0 .258-.064.322-3.591 9.511-11.667 23.045-14.745 23.045-.383 0-.64-.193-.64-.575z" mask="url(#2zw30rv0zb)"/>
                </g>
                <g transform="translate(-1120 -150) translate(1120 150) translate(0 567.63)">
                    <mask id="ehc4sz93nd" fill="#fff">
                        <use xlink:href="#p0hvcjhb7c"/>
                    </mask>
                    <path fill="#3E3A39" d="M196.071 37.657c1.463 0 1.898-.079 2.058-.197.057-.04.117-.119.117-.376 0-.553-.376-1.245-1.523-1.245-1.166 0-2.174 1.067-2.194 1.72 0 .039 0 .098.136.098h1.406zm-1.228.593c-.512 0-.531.04-.531.534 0 1.997 1.164 3.7 3.281 3.7.653 0 1.206-.2 1.819-.972.198-.057.338.06.358.237-.652 1.347-2.078 1.841-3.104 1.841-1.287 0-2.295-.553-2.868-1.307-.596-.77-.83-1.698-.83-2.57 0-2.431 1.598-4.47 3.973-4.47 1.7 0 2.81 1.169 2.81 2.355 0 .277-.043.435-.08.514-.061.119-.338.138-1.168.138h-3.66zm-6.57-1.897c-.334 0-.356.059-.356.474v3.697c0 1.149.141 2.196 1.444 2.196.2 0 .377-.04.533-.098.18-.062.437-.277.497-.277.158 0 .235.215.197.336-.355.415-1.067.91-2.075.91-1.703 0-2.058-.95-2.058-2.136v-4.53c0-.533-.02-.572-.413-.572h-.554c-.12-.08-.14-.297-.061-.416.573-.177 1.07-.434 1.265-.612.259-.238.635-.774.83-1.169.099-.037.338-.037.417.101v.888c0 .358.02.377.356.377h2.195c.235.178.197.712.02.83h-2.237zm-9.546 6.345c.398 0 1.008-.294 1.208-.494.237-.237.237-.514.257-.929l.04-1.166c0-.218-.08-.257-.198-.257-.118 0-.455.079-.81.197-1.167.398-1.742.692-1.742 1.463 0 .339.24 1.186 1.245 1.186zm1.228-3.479c.297-.099.336-.277.336-.573l.02-.91c.02-.731-.218-1.72-1.443-1.72-.554 0-1.228.277-1.265.89-.02.316-.042.554-.198.672-.299.237-.833.376-1.13.376-.177 0-.276-.099-.276-.277 0-1.028 2.236-2.434 3.68-2.434 1.425 0 2.115.833 2.057 2.315l-.12 3.44c-.04.912.138 1.722.909 1.722.198 0 .376-.059.496-.12.1-.058.196-.137.257-.137.077 0 .137.119.137.257 0 .1-.692.87-1.661.87-.474 0-.949-.178-1.285-.613-.079-.118-.198-.279-.316-.279-.14 0-.376.178-.771.398-.435.235-.87.494-1.424.494-.575 0-1.05-.158-1.386-.455-.375-.336-.61-.83-.61-1.386 0-.77.375-1.225 1.64-1.68l2.353-.85zm-11.033-1.581c0-.771 0-.87-.534-1.226l-.178-.119c-.079-.079-.079-.296.02-.356.455-.158 1.502-.672 1.997-.97.098.022.16.061.16.138v1.149c0 .099.018.158.057.178.692-.574 1.443-1.189 2.175-1.189.496 0 .891.319.891.793 0 .653-.536.91-.85.91-.197 0-.296-.06-.435-.139-.296-.197-.595-.316-.872-.316-.314 0-.553.178-.711.395-.198.277-.255.85-.255 1.523v2.688c0 1.426.037 1.663.789 1.722l.711.057c.14.101.099.437-.037.497-.93-.042-1.505-.06-2.194-.06-.714 0-1.307.018-1.821.06-.139-.06-.18-.396-.04-.497l.376-.057c.731-.12.75-.296.75-1.722v-3.46zm-6.258-1.285c-.334 0-.356.059-.356.474v3.697c0 1.149.138 2.196 1.443 2.196.2 0 .378-.04.534-.098.178-.062.437-.277.496-.277.159 0 .235.215.198.336-.356.415-1.07.91-2.078.91-1.7 0-2.056-.95-2.056-2.136v-4.53c0-.533-.02-.572-.415-.572h-.553c-.12-.08-.139-.297-.06-.416.574-.177 1.068-.434 1.265-.612.257-.238.633-.774.83-1.169.1-.037.339-.037.418.101v.888c0 .358.018.377.356.377h2.194c.237.178.198.712.02.83h-2.236zm-13.15 1.285c0-.771 0-.87-.532-1.226l-.18-.119c-.08-.079-.08-.296.02-.356.454-.158 1.58-.672 1.978-.97.08 0 .178.04.216.138-.038.457-.038.753-.038.931 0 .119.077.218.216.218.83-.516 1.761-1.01 2.77-1.01 1.64 0 2.312 1.128 2.312 2.453v3.4c0 1.426.04 1.623.754 1.722l.433.057c.138.101.098.437-.04.497-.593-.042-1.166-.06-1.858-.06-.714 0-1.305.018-1.839.06-.14-.06-.178-.396-.04-.497l.376-.057c.732-.12.752-.296.752-1.722v-2.945c0-1.127-.517-1.958-1.859-1.958-.753 0-1.406.317-1.682.692-.257.336-.295.613-.295 1.186v3.025c0 1.426.038 1.601.752 1.722l.355.057c.137.101.1.437-.041.497-.532-.042-1.107-.06-1.797-.06-.714 0-1.307.018-1.86.06-.139-.06-.178-.396-.04-.497l.415-.057c.732-.099.751-.296.751-1.722v-3.46zm-7.473.02c1.463 0 1.9-.08 2.058-.198.057-.04.118-.119.118-.376 0-.553-.375-1.245-1.524-1.245-1.166 0-2.174 1.067-2.194 1.72 0 .039 0 .098.138.098h1.404zm-1.226.592c-.514 0-.532.04-.532.534 0 1.997 1.165 3.7 3.282 3.7.652 0 1.206-.2 1.819-.972.198-.057.336.06.356.237-.653 1.347-2.076 1.841-3.104 1.841-1.287 0-2.295-.553-2.869-1.307-.593-.77-.83-1.698-.83-2.57 0-2.431 1.601-4.47 3.976-4.47 1.698 0 2.807 1.169 2.807 2.355 0 .277-.04.435-.08.514-.058.119-.335.138-1.166.138h-3.659zm-4.88-2.668c.157.138.298.454.298.79 0 .356-.2.732-.435.732-.099 0-.198-.04-.277-.139-.437-.533-1.168-1.047-1.979-1.047-1.386 0-2.728 1.087-2.728 3.182 0 1.542 1.066 3.383 3.183 3.383 1.149 0 1.74-.516 2.194-1.188.16-.038.339.1.356.277-.67 1.465-2.155 2.018-3.301 2.018-1.048 0-2.019-.336-2.709-1.008-.691-.672-1.146-1.643-1.146-2.928 0-2.135 1.5-4.41 4.784-4.41.455 0 1.226.1 1.76.338zm-16.982 2.056c0-.771 0-.87-.534-1.226l-.178-.119c-.079-.079-.079-.296.02-.356.455-.158 1.582-.672 1.98-.97.078 0 .177.04.214.138-.037.457-.037.753-.037.931 0 .119.08.218.215.218.83-.516 1.76-1.01 2.77-1.01 1.64 0 2.313 1.128 2.313 2.453v3.4c0 1.426.04 1.623.753 1.722l.433.057c.139.101.1.437-.04.497-.592-.042-1.166-.06-1.858-.06-.711 0-1.304.018-1.838.06-.138-.06-.178-.396-.04-.497l.376-.057c.731-.12.751-.296.751-1.722v-2.945c0-1.127-.516-1.958-1.86-1.958-.751 0-1.404.317-1.68.692-.258.336-.295.613-.295 1.186v3.025c0 1.426.037 1.601.75 1.722l.357.057c.136.101.097.437-.042.497-.531-.042-1.107-.06-1.796-.06-.714 0-1.307.018-1.86.06-.141-.06-.179-.396-.04-.497l.415-.057c.731-.099.751-.296.751-1.722v-3.46zm-7.984-1.8c-1.307 0-2.276 1.246-2.276 3.42 0 1.8.81 3.74 2.552 3.74 1.74 0 2.274-1.82 2.274-3.344 0-1.68-.675-3.815-2.55-3.815zm4.25 3.5c0 2.473-1.7 4.252-4.174 4.252-2.273 0-4.052-1.601-4.052-4.074 0-2.491 1.878-4.273 4.21-4.273 2.217 0 4.016 1.663 4.016 4.095zm-11.19-3.756c.159.138.297.454.297.79 0 .356-.197.732-.435.732-.099 0-.197-.04-.276-.139-.435-.533-1.167-1.047-1.977-1.047-1.386 0-2.728 1.087-2.728 3.182 0 1.542 1.065 3.383 3.182 3.383 1.147 0 1.74-.516 2.195-1.188.158-.038.336.1.356.277-.673 1.465-2.155 2.018-3.302 2.018-1.048 0-2.018-.336-2.708-1.008-.694-.672-1.149-1.643-1.149-2.928 0-2.135 1.502-4.41 4.786-4.41.455 0 1.226.1 1.76.338zm-23.408-3.423c0-1.166-.017-1.285-.613-1.64l-.197-.119c-.1-.06-.1-.336 0-.395.496-.159 1.425-.455 2.137-.83.08 0 .158.039.198.118-.02.593-.062 1.581-.062 2.451v4.154c0 .178.022.336.081.376.712-.554 1.661-1.03 2.67-1.03 1.88 0 2.552 1.168 2.552 2.552v3.301c0 1.426.037 1.64.749 1.722l.533.057c.141.101.1.437-.037.497-.712-.042-1.285-.06-1.977-.06-.714 0-1.305.018-1.838.06-.14-.06-.178-.396-.042-.497l.397-.057c.732-.12.752-.296.752-1.722V38.27c0-1.265-.615-2.115-1.88-2.115-.673 0-1.187.237-1.542.534-.356.296-.418.395-.418 1.087v3.321c0 1.426.042 1.623.754 1.722l.415.057c.138.082.099.437-.04.497-.593-.042-1.166-.06-1.86-.06-.712 0-1.303.018-1.935.06-.141-.06-.178-.396-.042-.497l.496-.057c.732-.081.75-.296.75-1.722V32.16zm-6.128 4.194c-.334 0-.356.059-.356.474v3.697c0 1.149.14 2.196 1.445 2.196.198 0 .376-.04.534-.098.178-.062.435-.277.494-.277.16 0 .238.215.198.336-.356.415-1.067.91-2.076.91-1.702 0-2.058-.95-2.058-2.136v-4.53c0-.533-.02-.572-.413-.572h-.553c-.121-.08-.14-.297-.062-.416.574-.177 1.07-.434 1.268-.612.257-.238.632-.774.83-1.169.099-.037.336-.037.415.101v.888c0 .358.02.377.356.377h2.194c.24.178.198.712.02.83h-2.236zm-9.507 6.345c.398 0 1.009-.294 1.208-.494.235-.237.235-.514.255-.929l.042-1.166c0-.218-.08-.257-.198-.257-.12 0-.454.079-.81.197-1.167.398-1.74.692-1.74 1.463 0 .339.235 1.186 1.243 1.186zm1.228-3.479c.297-.099.336-.277.336-.573l.02-.91c.02-.731-.22-1.72-1.443-1.72-.554 0-1.228.277-1.265.89-.02.316-.042.554-.198.672-.299.237-.832.376-1.129.376-.178 0-.277-.099-.277-.277 0-1.028 2.236-2.434 3.68-2.434 1.423 0 2.115.833 2.055 2.315l-.118 3.44c-.04.912.138 1.722.91 1.722.197 0 .375-.059.493-.12.1-.058.198-.137.26-.137.076 0 .136.119.136.257 0 .1-.692.87-1.66.87-.475 0-.95-.178-1.286-.613-.079-.118-.2-.279-.316-.279-.138 0-.376.178-.773.398-.433.235-.868.494-1.421.494-.576 0-1.05-.158-1.386-.455-.376-.336-.613-.83-.613-1.386 0-.77.375-1.225 1.643-1.68l2.352-.85zm-13.087 1.406c0 .692.156 1.302.492 1.72.339.415.872.652 1.505.652 1.858 0 2.59-1.584 2.59-3.284 0-2.036-1.048-3.617-3.005-3.617-.593 0-1.07.138-1.347.316-.197.138-.235.356-.235 1.127v3.086zm-1.465-8.466c0-1.166-.02-1.285-.61-1.64l-.2-.119c-.1-.06-.1-.336 0-.395.454-.178 1.403-.435 2.154-.83.08 0 .159.039.198.118-.04.692-.077 1.581-.077 2.451v3.739c0 .336.077.415.198.415.512-.299 1.303-.655 2.273-.655 2.254 0 3.778 1.703 3.778 3.877 0 2.63-1.9 4.47-4.55 4.47-.732 0-1.286-.138-1.679-.259-.417-.136-.674-.255-.83-.255-.16 0-.319.158-.418.297-.02.02-.037.02-.079.02-.079 0-.158-.04-.197-.12.02-.276.04-.651.04-1.68V32.16zm-16.981 0c0-1.166-.018-1.285-.613-1.64l-.198-.119c-.099-.06-.099-.336 0-.395.497-.159 1.426-.455 2.138-.83.079 0 .158.039.197.118-.02.593-.061 1.581-.061 2.451v6.783c0 .257.022.297.358.297.435 0 .81-.218 1.344-.771l.81-.87c.554-.593.692-.81.692-.91 0-.098-.098-.158-.434-.197l-.475-.06c-.178-.059-.178-.434 0-.494h.455c.87 0 2.036-.04 3.145-.158.136.057.156.396.04.494l-.635.119c-.393.08-.732.277-1.245.692-.77.613-1.444 1.324-1.8 1.66-.237.218-.254.317-.138.475.338.455.653.83 1.325 1.581.77.872 1.465 1.643 1.858 2.019.277.257.672.376 1.028.433l.279.04c.138.1.118.436-.04.496-.573-.042-1.247-.06-1.88-.06-.788 0-1.483.018-2.054.06-.16-.08-.178-.415-.041-.497l.355-.057c.297-.04.495-.081.495-.197 0-.12-.077-.257-.336-.556l-2.116-2.452c-.178-.197-.395-.276-.612-.276-.356 0-.378.059-.378.672v1.087c0 1.426.041 1.623.753 1.722l.475.057c.138.101.098.437-.04.497-.652-.042-1.226-.06-1.92-.06-.711 0-1.302.018-1.898.06-.136-.06-.177-.396-.02-.497l.438-.057c.731-.099.749-.296.749-1.722V32.16zm-5.285 8.938c0 1.426.042 1.623.753 1.722l.475.057c.138.101.099.437-.04.497-.654-.042-1.225-.06-1.92-.06-.711 0-1.304.018-1.897.06-.139-.06-.178-.396-.04-.497l.455-.057c.731-.099.751-.296.751-1.722V32.16c0-1.166-.02-1.285-.613-1.64l-.197-.119c-.1-.06-.1-.336 0-.395.496-.159 1.423-.455 2.137-.83.079 0 .158.039.195.118-.017.593-.059 1.581-.059 2.451v9.353zm-6.548-9.096c0 .712-.496 1.03-1.05 1.03-.613 0-1.008-.456-1.008-.99 0-.653.474-1.068 1.067-1.068.594 0 .991.475.991 1.028zm-1.643 5.637c0-.771 0-.87-.534-1.226l-.178-.119c-.079-.079-.079-.296.02-.356.455-.158 1.582-.672 2.036-.97.1 0 .178.04.198.12-.04.692-.077 1.641-.077 2.452v3.558c0 1.426.038 1.623.75 1.722l.417.057c.136.101.098.437-.042.497-.591-.042-1.167-.06-1.856-.06-.714 0-1.307.018-1.86.06-.141-.06-.179-.396-.04-.497l.415-.057c.731-.099.751-.296.751-1.722v-3.46zm-13.994.395c.455.93.89 1.838 1.364 2.708h.04c.533-.929 1.028-1.957 1.522-2.965l1.858-3.778c.892-1.799 1.463-2.886 1.505-3.796.67.06 1.087.06 1.482.06.495 0 1.147-.02 1.76-.06.118.08.118.415.02.495l-.416.04c-1.247.118-1.403.493-1.383 1.877.037 2.098.057 5.755.215 8.604.061.986.042 1.52.97 1.601l.633.057c.119.121.1.418-.04.497-.81-.042-1.62-.06-2.332-.06-.694 0-1.584.018-2.394.06-.136-.1-.156-.376-.04-.497l.574-.057c.97-.099.97-.415.97-1.682l-.061-8.246h-.037c-.141.217-.892 1.799-1.285 2.57l-1.762 3.462c-.89 1.74-1.781 3.6-2.137 4.509-.038.06-.117.08-.198.08-.037 0-.136-.02-.178-.08-.334-1.05-1.285-2.985-1.74-3.956l-1.779-3.815c-.415-.91-.83-1.94-1.265-2.85h-.04c-.078 1.229-.138 2.375-.197 3.522-.06 1.206-.138 2.965-.138 4.645 0 1.466.12 1.782.89 1.841l.75.057c.139.121.121.437-.02.497-.672-.042-1.443-.06-2.194-.06-.632 0-1.344.018-2.016.06-.121-.1-.158-.396-.04-.497l.435-.057c.83-.12 1.107-.237 1.226-1.623.118-1.305.217-2.392.336-4.35.099-1.64.178-3.323.217-4.41.04-1.245-.118-1.542-1.324-1.7l-.319-.04c-.098-.118-.077-.415.08-.494.595.04 1.07.06 1.563.06.455 0 .991 0 1.641-.06-.079.771.415 1.997 1.028 3.262l2.256 4.569zm69.533-27.83c0 1.366.336 2.275 1.839 2.275.534 0 1.166-.22 1.601-.593.257-.237.396-.536.396-1.148V7.495c0-1.285-.139-1.325-.732-1.562l-.257-.099c-.138-.08-.138-.356.02-.437.79-.018 1.878-.156 2.313-.356.099.022.158.062.178.14-.038.376-.06.99-.06 1.72v3.322c0 1.564.06 2.157.613 2.157.24 0 .497-.04.773-.1.117.1.137.495-.02.574-.772.158-1.92.356-2.591.732-.1 0-.198-.06-.237-.139v-.813c0-.175-.058-.276-.178-.276-.593.377-1.562 1.03-2.728 1.03-1.74 0-2.392-.87-2.392-2.473V7.613c0-1.245 0-1.423-.596-1.68l-.237-.099c-.119-.099-.099-.376.04-.437.909-.018 1.68-.196 2.115-.356.12.022.178.062.198.14-.038.337-.058.752-.058 1.72v3.302zm-13.308 6.98c0-.533.355-.79.793-.79h.373c.318 0 .516-.139.652-.356.576-.89.971-1.72 1.15-2.194.058-.159.197-.576.197-.85 0-.396-.08-.635-.336-1.367l-1.544-4.23c-.334-.93-.475-1.404-1.165-1.542l-.496-.1c-.116-.098-.099-.434.062-.496.632.042 1.223.062 1.878.062.531 0 1.087-.02 1.72-.062.158.062.177.398.039.497l-.494.099c-.28.06-.435.118-.435.257 0 .237.455 1.522.573 1.858l.633 1.819c.118.316.494 1.366.573 1.406.06-.04.376-.655.734-1.466l.67-1.561c.437-1.028.694-1.76.694-1.977 0-.139-.121-.277-.477-.336l-.61-.1c-.141-.098-.121-.434.037-.496.632.042 1.228.062 1.74.062.496 0 .95-.02 1.504-.062.158.082.178.378.037.497l-.333.06c-.655.118-1.01.691-1.683 2.095l-1.107 2.273c-.65 1.327-2.273 4.767-3.242 6.921-.336.752-.81.93-1.265.93-.574 0-.872-.356-.872-.85zM59.743 1.8c0 .712-.496 1.03-1.05 1.03-.613 0-1.008-.457-1.008-.99 0-.653.475-1.068 1.068-1.068.593 0 .99.474.99 1.028zM58.1 7.435c0-.77 0-.87-.534-1.225l-.177-.119c-.08-.08-.08-.297.02-.356.454-.158 1.58-.672 2.036-.97.098 0 .177.039.197.12-.04.692-.077 1.64-.077 2.451v3.559c0 1.425.038 1.623.75 1.722l.417.057c.136.101.099.437-.042.496-.59-.041-1.166-.059-1.856-.059-.714 0-1.307.018-1.86.06-.141-.06-.178-.396-.04-.497l.415-.057c.731-.099.751-.297.751-1.722v-3.46zm-6.7.653c0-1.345-.553-2.471-1.759-2.471-.95 0-1.66.87-1.66 2.214 0 1.403.85 2.313 1.797 2.313 1.07 0 1.623-.85 1.623-2.056zm-1.225 5.656c-.632 0-1.423.04-1.7.217-.474.297-.949.91-.949 1.66 0 1.068.85 1.958 2.65 1.958 1.759 0 2.925-.989 2.925-2.115 0-1.206-.83-1.72-2.254-1.72h-.672zm4.134-7.99c.217.1.178.772-.12.811h-1.424c.04.337.04.673.04 1.009 0 1.364-.811 3.143-3.322 3.143-.356 0-.632-.04-.87-.06-.237.139-.87.515-.87 1.09 0 .455.455.83 1.384.83.673 0 1.483-.059 2.353-.059 1.11 0 2.77.198 2.77 2.175 0 2.154-2.355 3.738-4.927 3.738-2.43 0-3.282-1.307-3.282-2.295 0-.317.08-.574.22-.732.334-.356.887-.87 1.342-1.324.178-.178.338-.356.158-.475-.769-.197-1.443-.87-1.443-1.564 0-.098.08-.178.297-.333.336-.22.711-.554 1.05-.912.096-.119.195-.275.195-.373-.67-.358-1.48-1.13-1.48-2.395 0-1.7 1.462-2.987 3.222-2.987.751 0 1.443.2 1.898.398.634.276.77.316 1.206.316h1.603zM36.73 10.204c0 1.366.336 2.275 1.839 2.275.533 0 1.166-.22 1.601-.593.26-.237.395-.536.395-1.148V7.495c0-1.285-.136-1.325-.731-1.562l-.257-.099c-.138-.08-.138-.356.022-.437.788-.018 1.876-.156 2.31-.356.1.022.161.062.179.14-.038.376-.06.99-.06 1.72v3.322c0 1.564.06 2.157.613 2.157.24 0 .496-.04.773-.1.119.1.136.495-.02.574-.77.158-1.92.356-2.591.732-.097 0-.196-.06-.238-.139v-.813c0-.175-.057-.276-.178-.276-.59.377-1.561 1.03-2.728 1.03-1.74 0-2.392-.87-2.392-2.473V7.613c0-1.245 0-1.423-.595-1.68l-.237-.099c-.119-.099-.099-.376.042-.437.909-.018 1.678-.196 2.115-.356.118.022.178.062.195.14-.037.337-.057.752-.057 1.72v3.302zm-5.632-4.806c.178.437.314 1.07.314 1.603-.076.139-.375.178-.474.06-.336-.87-.93-1.443-1.74-1.443-.77 0-1.265.494-1.265 1.205 0 .81.83 1.246 1.522 1.641 1.048.593 2.017 1.265 2.017 2.669 0 1.502-1.382 2.256-2.845 2.256-.931 0-1.623-.198-2.117-.593-.16-.376-.277-1.347-.238-1.999.1-.119.356-.138.455-.02.336 1.087.969 2.036 2.096 2.036.714 0 1.324-.415 1.324-1.265 0-.91-.788-1.403-1.52-1.819-1.149-.652-1.96-1.344-1.96-2.431 0-1.443 1.187-2.256 2.692-2.256.828 0 1.56.2 1.74.356zm-11.883.24c-1.305 0-2.276 1.245-2.276 3.42 0 1.798.811 3.738 2.553 3.738 1.74 0 2.275-1.819 2.275-3.343 0-1.68-.674-3.816-2.552-3.816zm4.253 3.498c0 2.474-1.7 4.253-4.174 4.253-2.275 0-4.052-1.601-4.052-4.075 0-2.49 1.875-4.272 4.21-4.272 2.217 0 4.016 1.663 4.016 4.094zM2.049 3.025C2.05.949 2.01.633.863.534L.367.494C.25.415.29.06.408 0 1.377.04 2.01.06 2.9.06 3.67.06 4.342.04 5.195 0c.116.06.158.415.037.494l-.376.04C3.71.652 3.67.949 3.67 3.024V5.3c0 .374.04.751.257.751.178 0 .415-.118.554-.217.276-.237.793-.753 1.008-.949l2.137-2.117c.376-.356 1.344-1.364 1.542-1.641.099-.139.138-.237.138-.316 0-.08-.079-.139-.336-.198L8.437.494C8.298.356 8.316.1 8.477 0c.691.04 1.482.06 2.174.06S12.015.04 12.61 0c.135.099.157.376.036.494-.511.04-1.285.237-1.838.554-.554.316-1.66 1.245-2.77 2.293L6.262 5.023c-.277.277-.455.455-.455.613 0 .139.119.297.376.613 1.878 2.155 3.4 3.934 4.942 5.555.477.477.91.732 1.582.813l.536.057c.136.101.099.437-.042.496-.512-.041-1.285-.059-2.214-.059-.81 0-1.503.018-2.412.06-.138-.042-.198-.376-.079-.497l.455-.077c.276-.04.474-.1.474-.2 0-.116-.138-.274-.277-.454-.377-.473-.89-1.009-1.643-1.859L5.926 8.305c-1.129-1.265-1.445-1.66-1.918-1.66-.298 0-.338.257-.338.948v2.55c0 2.076.04 2.353 1.149 2.474l.534.057c.118.081.077.437-.042.496-.969-.041-1.64-.059-2.412-.059-.81 0-1.482.018-2.293.06-.119-.06-.16-.359-.04-.497l.396-.057c1.048-.158 1.087-.398 1.087-2.473v-7.12z" mask="url(#ehc4sz93nd)"/>
                </g>
            </g>
        </g>
    </g>
</svg>
